<svg version="1.1" id="Layer_1" xmlns="http://www.w3.org/2000/svg" xmlns:xlink="http://www.w3.org/1999/xlink" x="0px" y="0px" viewBox="0 0 232.6 64.4" style="enable-background:new 0 0 232.6 64.4;" xml:space="preserve">
 <style type="text/css">
  .st0{fill:#FF6200;}
	.st1{fill:#4D148C;}
 </style>
 <g>
  <path class="st0" d="M217.6,54.8c0-4.4,3.5-7.4,7.5-7.4s7.5,3,7.5,7.4s-3.5,7.4-7.5,7.4C221.2,62.2,217.6,59.2,217.6,54.8
		 M225.2,54c1.3,0,1.6-0.7,1.6-1.3c0-0.7-0.4-1.3-1.6-1.3h-1.6V54H225.2z M223.5,55.1v4.1h-1.3v-8.9h3.3c1.9,0,2.8,0.8,2.8,2.5
		c0,1-0.7,1.8-1.6,1.9l0,0c0.8,0.1,1,0.8,1.2,2c0.1,0.8,0.3,2.2,0.6,2.5h-1.6c-0.4-0.8-0.3-2-0.6-3c-0.2-0.8-0.6-1-1.5-1L223.5,55.1
		L223.5,55.1z M231.2,54.8c0-3.6-2.5-6.2-6-6.2s-6,2.6-6,6.2c0,3.6,2.5,6.2,6,6.2C228.6,61,231.2,58.4,231.2,54.8">
  </path>
  <polygon class="st0" points="191.7,62.2 183.1,52.5 174.6,62.2 156.6,62.2 174.2,42.4 156.6,22.7 175.2,22.7 183.9,32.3 
		192.2,22.7 210.1,22.7 192.6,42.4 210.4,62.2 	">
  </polygon>
  <polygon class="st0" points="122.1,62.2 122.1,0 156.6,0 156.6,13.9 136.7,13.9 136.7,22.7 156.6,22.7 156.6,36 136.7,36 
		136.7,48.3 156.6,48.3 156.6,62.2 	">
  </polygon>
  <path class="st1" d="M98.7,52.7c-5.4,0-8.7-5-8.7-10.2c0-5.6,2.9-10.9,8.7-10.9c6,0,8.4,5.4,8.4,10.9
		C107.1,47.8,104.6,52.7,98.7,52.7 M47,36.2c0.9-3.9,4-6.5,7.8-6.5c4.2,0,7.1,2.5,7.9,6.5H47z M107.5,0v25.4h-0.2
		c-3.2-3.7-7.3-5-11.9-5c-9.6,0-16.8,6.5-19.3,15.1C73.2,26,65.8,20.2,54.7,20.2c-9,0-16,4-19.7,10.6v-8.1H16.5v-8.8h20.2V0H0v62.2
		h16.5V36H33c-0.5,1.9-0.8,4-0.8,6.1c0,13,9.9,22.1,22.6,22.1c10.6,0,17.6-5,21.4-14.1H62c-1.9,2.7-3.4,3.5-7.2,3.5
		c-4.4,0-8.3-3.9-8.3-8.5h28.8c1.2,10.3,9.3,19.2,20.3,19.2c4.7,0,9.1-2.3,11.8-6.3h0.2v4h14.6V0H107.5z">
  </path>
 </g>
</svg>