<?xml version="1.0" encoding="utf-8"?>
<!-- Generator: Adobe Illustrator 15.0.0, SVG Export Plug-In . SVG Version: 6.00 Build 0)  -->
<!DOCTYPE svg PUBLIC "-//W3C//DTD SVG 1.1//EN" "http://www.w3.org/Graphics/SVG/1.1/DTD/svg11.dtd">
<svg version="1.1" id="Layer_1" xmlns="http://www.w3.org/2000/svg" xmlns:xlink="http://www.w3.org/1999/xlink" x="0px" y="0px"
	 width="260px" height="45px" viewBox="0 0 260 45" enable-background="new 0 0 260 45" xml:space="preserve">
<path fill="#EF3829" d="M180.458,13.875c-4.312,0-8.219,1.194-10.312,2.109l-2.454,5.259c2.36-1.078,5.585-2.166,8.842-2.166
	c3.383,0,3.536,1.701,2.785,3.314l-0.198,0.421c-7.853,0.015-15.316,2.935-18.376,9.492c-1.953,4.196-0.505,7.648,4.25,7.648
	c2.773,0,5.65-1.012,8.163-2.982h0.147l-0.717,2.483h6.896c0.429-1.533,1.326-3.702,2.364-5.926l4.195-8.996
	C188.627,18.992,188.876,13.875,180.458,13.875 M175.581,30.896c-0.202,0.433-0.446,0.881-0.736,1.251
	c-1.241,1.568-3.212,2.564-4.84,2.564c-1.524,0-2.492-0.953-1.459-3.17c1.494-3.201,5.198-4.094,8.646-4.098L175.581,30.896z"/>
<path fill="#EF3829" d="M101.114,14.374L93.928,29.79c-0.339,0.725-0.779,1.394-1.217,1.86c-0.945,1.092-2.594,2.301-4.368,2.301
	c-2.47,0-2.458-2.17-0.825-5.672l6.487-13.905h-7.696l-6.971,14.948c-3.4,7.301-1.883,10.63,3.314,10.63
	c3.848,0,7.11-2.04,8.969-3.646h0.146l-1.09,3.147h4.644h1.167h1.035c0.425-1.534,1.303-3.735,2.358-5.927
	c1.06-2.19,8.926-19.153,8.926-19.153H101.114z"/>
<path fill="#EF3829" d="M132.675,34.587c-3.005,0-2.806-3.409-0.811-7.686c1.684-3.609,4.654-7.655,7.978-7.655
	c3.126,0,2.353,4.033,0.674,7.633c-1.939,4.156-4.995,7.708-7.786,7.708H132.675z M130.131,39.953
	c5.66,0,13.775-3.497,18.307-13.216c3.596-7.711,1.355-12.863-5.882-12.863c-7.048,0-14.553,4.698-18.513,13.179
	c-3.784,8.116-1.021,12.9,6.032,12.9H130.131z"/>
<path fill="#EF3829" d="M214.127,34.587c-3.007,0-2.806-3.409-0.809-7.686c1.682-3.609,4.654-7.655,7.975-7.655
	c3.135,0,2.354,4.033,0.674,7.633c-1.937,4.156-4.992,7.708-7.785,7.708H214.127z M211.583,39.953
	c5.667,0,13.775-3.497,18.309-13.216c3.593-7.711,1.354-12.863-5.882-12.863c-7.047,0-14.557,4.698-18.513,13.179
	c-3.781,8.116-1.021,12.9,6.032,12.9H211.583z"/>
<path fill="#EF3829" d="M254.439,14.01c-0.471-0.104-0.838-0.135-1.577-0.135c-2.273,0-5.698,1.486-8.476,4.723h-0.196l1.643-4.224
	h-6.621c-0.92,2.24-2.02,4.79-3.496,7.956l-7.986,17.124h4.087c2.359,0,4.186-1.238,5.238-3.491l4.297-9.217
	c0.376-0.81,0.803-1.543,1.184-2.068c1.809-2.496,4.447-3.787,6.782-3.787c0.793,0,1.34,0.051,1.844,0.159L254.439,14.01z"/>
<path fill="#EF3829" d="M197.979,33.892c-1.987,0-2.464-1.103-1.075-4.074l4.714-10.117h4.617l2.48-5.326h-4.614l3.109-6.673h-3.974
	c-2.362,0-4.184,1.245-5.241,3.496l-1.481,3.177h-3.321l-2.479,5.326h3.315l-5.104,10.948c-1.735,3.725-1.992,5.912-1.163,7.323
	c0.717,1.229,2.418,1.923,4.796,1.923c2.091,0,3.963-0.253,5.13-0.571l2.635-5.65C199.577,33.838,199.057,33.892,197.979,33.892"/>
<path fill="#EF3829" d="M164.701,7.7c-2.364,0-4.187,1.246-5.242,3.497l-13.176,28.257h4.085c2.362,0,4.186-1.24,5.237-3.491
	L168.784,7.7H164.701z"/>
<path fill="#EF3829" d="M128.919,14.01c-0.472-0.104-0.841-0.135-1.575-0.135c-2.274,0-5.699,1.486-8.476,4.723h-0.199l1.646-4.224
	h-6.626c-0.921,2.24-2.014,4.79-3.494,7.956l-7.985,17.124h4.086c2.36,0,4.185-1.238,5.236-3.491l4.298-9.217
	c0.377-0.81,0.807-1.543,1.186-2.068c1.809-2.496,4.447-3.787,6.78-3.787c0.794,0,1.34,0.051,1.843,0.159L128.919,14.01z"/>
<path fill="#EF3829" d="M82.602,15.938c2.037-4.942,2.046-10.538-8.894-10.538h-9.776L48.048,39.454h4.023
	c2.363,0,4.186-1.238,5.242-3.491l4.235-9.084c0.59,0.066,1.325,0.105,2.144,0.105c3.984,0,8.433-0.401,12.118-2.809
	C78.738,22.261,81.111,19.553,82.602,15.938 M66.23,21.229c-0.867,0-1.487-0.037-1.977-0.148l4.839-10.359
	c0.726-0.123,1.582-0.06,2.787-0.06c3.751,0,4.666,1.878,3.173,5.209C73.522,19.274,70.23,21.229,66.23,21.229"/>
<path fill="#00529C" d="M56.785,5.399H43.792l-15.88,34.055h9.379c2.363,0,4.185-1.238,5.239-3.491
	C43.585,33.71,56.785,5.399,56.785,5.399"/>
<path fill="#EF3829" d="M37.226,5.399L37.226,5.399c-2.363,0-4.187,1.245-5.24,3.493L17.735,39.454h5.985L39.602,5.399H37.226z"/>
<path fill="#00529C" d="M20.758,23.978H5.976c-0.849,0-1.536,0.691-1.536,1.544c0,0.424,0.169,0.812,0.452,1.088l9.985,9.986
	L20.758,23.978z"/>
</svg>
